<svg version="1.1" xmlns="http://www.w3.org/2000/svg" xmlns:xlink="http://www.w3.org/1999/xlink" width="61.72306" height="61.72306" viewBox="0,0,61.72306,61.72306"><defs><linearGradient x1="258.96152" y1="194.06236" x2="249.32332" y2="194.06236" gradientUnits="userSpaceOnUse" id="color-1"><stop offset="0" stop-color="#000000"/><stop offset="1" stop-color="#000000" stop-opacity="0"/></linearGradient><linearGradient x1="238.29361" y1="183.31311" x2="247.93181" y2="183.31311" gradientUnits="userSpaceOnUse" id="color-2"><stop offset="0" stop-color="#000000"/><stop offset="1" stop-color="#000000" stop-opacity="0"/></linearGradient><linearGradient x1="232.87778" y1="166.10009" x2="232.87778" y2="177.79808" gradientUnits="userSpaceOnUse" id="color-3"><stop offset="0" stop-color="#000000"/><stop offset="1" stop-color="#000000" stop-opacity="0"/></linearGradient></defs><g transform="translate(-209.13847,-149.13847)"><g data-paper-data="{&quot;isPaintingLayer&quot;:true}" fill-rule="nonzero" stroke="none" stroke-width="0" stroke-linecap="butt" stroke-linejoin="miter" stroke-miterlimit="10" stroke-dasharray="" stroke-dashoffset="0" style="mix-blend-mode: normal"><path d="M209.13847,180c0,-17.04435 13.81718,-30.86153 30.86153,-30.86153c17.04435,0 30.86153,13.81718 30.86153,30.86153c0,17.04435 -13.81718,30.86153 -30.86153,30.86153c-17.04435,0 -30.86153,-13.81718 -30.86153,-30.86153z" fill="#000000"/><path d="M236.56136,192.11388h-6.77743v-27.95281h6.77743z" fill="#ffffff"/><g><path d="M238.20151,204.13795v-7.28433l20.66108,-10.85138v7.28434z" fill="#ffffff"/><path d="M249.32332,199.85098v-9.93018l9.6382,-5.50736v10.59812z" data-paper-data="{&quot;index&quot;:null}" fill="url(#color-1)"/><path d="M238.34174,182.48918v-7.28434l20.66108,10.85138v7.28433z" data-paper-data="{&quot;index&quot;:null}" fill="#ffffff"/><path d="M238.36782,183.44592l-0.07422,-9.78174l9.6382,4.54255l0.07422,10.30126z" data-paper-data="{&quot;index&quot;:null}" fill="url(#color-2)"/><path d="M238.38987,182.59131v-7.28433l20.66108,-10.85138v7.28434z" fill="#ffffff"/></g><path d="M237.34264,177.79808h-8.92971v-11.69799h8.92971z" fill="url(#color-3)"/><path d="M220.94906,168.48519v-6.77743h24.44717v6.77743z" fill="#ffffff"/></g></g></svg>